<?xml version="1.0" encoding="iso-8859-1"?>
<!-- Generator: Adobe Illustrator 19.0.0, SVG Export Plug-In . SVG Version: 6.00 Build 0)  -->
<svg version="1.1" id="Layer_1" xmlns="http://www.w3.org/2000/svg" xmlns:xlink="http://www.w3.org/1999/xlink" x="0px" y="0px"
	 viewBox="0 0 512 512" style="enable-background:new 0 0 512 512;" xml:space="preserve">
<rect x="231.205" y="228.331" style="fill:#6E76E5;" width="49.58" height="242.615"/>
<rect x="231.205" y="228.331" style="fill:#515BE0;" width="17.746" height="242.615"/>
<path style="fill:#FFE666;" d="M256,251.958c-105.407,0-194.377-94.046-158.57-251.462h317.138
	C450.377,157.911,361.407,251.958,256,251.958z"/>
<path style="fill:#C9571E;" d="M206.282,447.326h99.436c14.513,0,26.277,11.765,26.277,26.277v34.086
	c0,2.381-1.93,4.311-4.311,4.311H184.317c-2.381,0-4.311-1.93-4.311-4.311v-34.086C180.006,459.091,191.77,447.326,206.282,447.326z
	"/>
<path style="fill:#A14718;" d="M243.777,447.326c-14.508,0-26.269,11.759-26.269,26.279V512h-34.266
	c-1.786,0-3.234-1.448-3.234-3.234v-35.161c0-14.514,11.766-26.279,26.279-26.279H243.777z"/>
<path style="fill:#E86F22;" d="M327.683,512H184.317c-2.381,0-4.311-1.93-4.311-4.311v-28.578h151.99v28.578
	C331.994,510.07,330.064,512,327.683,512z"/>
<path style="fill:#C9571E;" d="M217.508,479.114V512H184.32c-2.381,0-4.311-1.93-4.311-4.311v-28.575L217.508,479.114
	L217.508,479.114z"/>
<path style="fill:#EDD147;" d="M291.803,243.906c-103.596,0-191.307-90.848-160.297-243.411H97.43
	C61.623,157.911,150.593,251.958,256,251.958c19.126,0,37.705-3.112,55.102-9.121C304.749,243.546,298.307,243.906,291.803,243.906z
	"/>
<path style="fill:#6E76E5;" d="M415.421,126.599c-4.031,4.721-8.893,8.02-15.684,8.02c-23.951,0-23.951-40.96-47.901-40.96
	c-23.951,0-23.951,40.96-47.901,40.96c-23.962,0-23.962-40.96-47.913-40.96s-23.951,40.96-47.901,40.96
	c-23.962,0-23.962-40.96-47.913-40.96s-23.951,40.96-47.901,40.96c-6.834,0-11.706-3.331-15.748-8.084
	c-9.356-35.473-10.1-77.781,0.874-126.039h317.138C425.552,48.785,424.798,91.114,415.421,126.599z"/>
<path style="fill:#515BE0;" d="M131.507,0.495H97.43c-10.972,48.258-10.23,90.564-0.874,126.039
	c4.042,4.753,8.914,8.084,15.748,8.084c9.678,0,15.445-6.689,20.461-14.661C123.574,86.166,122.239,46.087,131.507,0.495z"/>
<g>
	<circle style="fill:#FFE666;" cx="208.415" cy="76.34" r="7.239"/>
	<circle style="fill:#FFE666;" cx="303.449" cy="76.34" r="7.239"/>
	<circle style="fill:#FFE666;" cx="401.251" cy="76.34" r="7.239"/>
	<circle style="fill:#FFE666;" cx="110.749" cy="76.34" r="7.239"/>
</g>
<circle style="fill:#6E76E5;" cx="256" cy="350.072" r="47.428"/>
<path style="fill:#515BE0;" d="M277.558,375.939c-26.193,0-47.427-21.234-47.427-47.427c0-7.534,1.765-14.653,4.89-20.979
	c-15.668,7.743-26.448,23.877-26.448,42.537c0,26.193,21.234,47.427,47.427,47.427c18.66,0,34.794-10.78,42.537-26.448
	C292.211,374.175,285.092,375.939,277.558,375.939z"/>
<path style="fill:#E86F22;" d="M421.996,34.493H90.004c-9.525,0-17.246-7.722-17.246-17.246l0,0C72.758,7.722,80.479,0,90.004,0
	h331.991c9.525,0,17.246,7.722,17.246,17.246l0,0C439.242,26.771,431.521,34.493,421.996,34.493z"/>
<path style="fill:#C9571E;" d="M117.987,17.246L117.987,17.246C117.987,7.722,125.709,0,135.233,0H90.004
	c-9.525,0-17.246,7.722-17.246,17.246l0,0c0,9.524,7.722,17.246,17.246,17.246h45.229C125.709,34.493,117.987,26.771,117.987,17.246
	z"/>
<g>
</g>
<g>
</g>
<g>
</g>
<g>
</g>
<g>
</g>
<g>
</g>
<g>
</g>
<g>
</g>
<g>
</g>
<g>
</g>
<g>
</g>
<g>
</g>
<g>
</g>
<g>
</g>
<g>
</g>
</svg>
